<svg width="9" height="16" viewBox="0 0 9 16" fill="none" xmlns="http://www.w3.org/2000/svg">
<path d="M7 0H2C0.5 0 0 0.708007 0 1.5V14.1058C0 15.5 0.5 16 2 16H7C8.13362 16 9 15.5 9 14.1058V1.5C9 0.5 8.5 0 7 0ZM2.84938 0.708007H6.15122C6.23483 0.708007 6.30184 0.833371 6.30184 0.98918C6.30184 1.14439 6.23483 1.27035 6.15122 1.27035H2.84938C2.76576 1.27035 2.69935 1.14439 2.69935 0.98918C2.69935 0.833371 2.76576 0.708007 2.84938 0.708007ZM4.5 15.5C4.09261 15.5 3.76112 15.1669 3.76112 14.7562C3.76112 14.3455 4.0932 14.0135 4.5 14.0135C4.9068 14.0135 5.23829 14.3461 5.23829 14.7562C5.23829 15.1669 4.90621 15.5 4.5 15.5ZM8.13362 13.5H0.86697V1.96642H8.13362V13.5Z" fill="white"/>
</svg>
