<svg width="19" height="16" viewBox="0 0 19 16" fill="none" xmlns="http://www.w3.org/2000/svg">
<path d="M17.9682 0.0280337V0H17.8752H1.11547H1.02246V0.0280337C0.47413 0.0660593 0.0650407 0.506204 0 1.04041V1.13444V12.2766C0 12.4927 0.055727 12.6748 0.14874 12.8388C0.362738 13.219 0.678628 13.4111 1.1155 13.4111H7.23188V14.9676H6.06999C5.78186 14.9676 5.55876 15.1937 5.55876 15.4838C5.55876 15.7739 5.78186 16 6.06999 16H12.9207C13.2089 16 13.4413 15.7739 13.4413 15.4838C13.4413 15.1937 13.2089 14.9676 12.9207 14.9676H11.7588V13.4111H17.8752C18.3122 13.4111 18.6309 13.219 18.8419 12.8388C18.9377 12.6668 19 12.4827 19 12.2766V1.13447V1.04044C18.9349 0.506204 18.4981 0.0660593 17.9682 0.0280337ZM17.9682 1.13447V12.2767C17.9682 12.3427 17.9404 12.3707 17.8752 12.3707H1.11547C1.05043 12.3707 1.02246 12.3427 1.02246 12.2767V1.13447V1.04044H17.9682V1.13447H17.9682Z" fill="white"/>
</svg>
