<svg width="16" height="16" viewBox="0 0 16 16" fill="none" xmlns="http://www.w3.org/2000/svg">
<path d="M14.0472 4.30141V1.72704C14.0472 1.44354 13.9013 1.18869 13.657 1.04535C13.4117 0.901442 13.1167 0.898473 12.8679 1.03763C10.4922 2.36625 7.90775 3.14216 5.1865 3.34394C5.16566 3.34547 2.70613 3.35622 2.70613 3.35622C2.08841 3.35622 1.57784 3.82257 1.50719 4.42157H1.00234C0.449688 4.42157 0 4.87119 0 5.42388V7.626C0 8.17869 0.449688 8.62835 1.00234 8.62835H1.50713C1.558 9.05944 1.83662 9.42157 2.21916 9.59082L4.01556 14.5486C4.12784 14.8572 4.42391 15.0645 4.75238 15.0645H6.55509C6.81066 15.0645 7.05072 14.9396 7.19731 14.7303C7.34391 14.5209 7.37925 14.2525 7.292 14.0128L5.74859 9.75535C8.26366 10.0166 10.6561 10.7741 12.8679 12.0111C12.9899 12.0793 13.1231 12.1133 13.256 12.1133C13.394 12.1133 13.5319 12.0766 13.6569 12.0033C13.9012 11.8599 14.0472 11.6051 14.0472 11.3216V8.74719C15.1472 8.60469 16 7.66254 16 6.52432C16 5.38607 15.1472 4.44388 14.0472 4.30141ZM1.49847 7.85529H1.00234C0.875875 7.85529 0.773031 7.75244 0.773031 7.62597V5.42388C0.773031 5.2975 0.875875 5.1946 1.00234 5.1946H1.49847V7.85529ZM2.52906 8.88257C2.3775 8.81463 2.2715 8.6626 2.2715 8.48607V4.56379H2.27153C2.27153 4.32419 2.4665 4.12925 2.70609 4.12925H4.81025V8.92063C4.81025 8.92063 2.68775 8.91982 2.67859 8.91925C2.60106 8.91029 2.58475 8.90629 2.52906 8.88257ZM6.56534 14.2766C6.56659 14.2797 6.56741 14.282 6.56406 14.2867C6.56078 14.2914 6.55834 14.2914 6.55506 14.2914H4.75234C4.74775 14.2914 4.74353 14.2885 4.74213 14.2847L3.07859 9.69363H4.90394L6.56534 14.2766ZM13.2742 11.3216C13.2742 11.3272 13.2742 11.3317 13.2658 11.3366C13.2559 11.3423 13.25 11.339 13.2452 11.3364C10.8692 10.0076 8.29306 9.20997 5.58328 8.96263V4.08638C8.29328 3.83866 10.8694 3.04094 13.2451 1.71232C13.25 1.70966 13.256 1.70638 13.2658 1.71213C13.2742 1.71704 13.2742 1.72144 13.2742 1.72704V11.3216ZM14.0472 7.96469V5.08391C14.7192 5.21872 15.227 5.81325 15.227 6.52429C15.227 7.23535 14.7192 7.82991 14.0472 7.96469Z" fill="white"/>
</svg>
