<svg width="16" height="16" viewBox="0 0 16 16" fill="none" xmlns="http://www.w3.org/2000/svg">
<path d="M15.7988 0.194595C15.3833 -0.222001 14.7122 0.114676 14.2095 0.419318C13.6921 0.73301 13.011 1.23867 12.1851 1.9223C10.4246 3.37961 8.42217 5.28923 6.80364 6.91127L6.80211 6.9103C5.8926 7.8303 5.02754 8.73038 4.01623 9.90247C3.54935 9.83195 3.01997 9.89198 2.52885 10.0984L2.5176 10.1033C1.50672 10.5597 0.846314 11.5741 0.835158 12.6877V12.6924C0.835158 13.9276 0.620564 14.9207 0.408626 15.2633L0 15.9237L0.773376 15.9793C0.963127 15.993 1.16194 16 1.36691 16C2.87263 16 4.70879 15.621 5.69888 14.7108L5.70157 14.7083C6.21201 14.2316 6.46014 13.5722 6.46014 12.6923C6.46014 12.5872 6.45379 12.4828 6.44129 12.3776C7.60767 11.3668 8.50589 10.505 9.44099 9.58512L9.4392 9.58211C11.3493 7.66814 13.0519 5.65484 14.2715 3.97202C14.885 3.12555 15.3608 2.37882 15.6474 1.8126C15.9413 1.23203 16.1892 0.585731 15.7988 0.194595ZM5.0637 14.0198C4.39907 14.6296 2.94038 15.0415 1.49035 15.0608C1.66747 14.4374 1.77241 13.5903 1.7726 12.6949C1.78094 11.949 2.22185 11.2699 2.89701 10.9624C3.29791 10.7954 3.70094 10.77 4.12741 10.8886C4.17895 10.8886 4.61191 10.9973 4.97548 11.3616C5.75292 12.1407 5.6421 13.4782 5.0637 14.0198ZM6.1432 11.3911C6.01267 11.1367 5.84279 10.9022 5.63842 10.6973C5.44323 10.5017 5.22585 10.3406 4.98848 10.2145C5.59829 9.5196 6.25967 8.80526 6.93504 8.11258C7.18073 8.2892 7.41304 8.48687 7.62861 8.70292L7.6332 8.70749C7.86104 8.92964 8.06767 9.17457 8.2502 9.43847C7.54214 10.1269 6.83648 10.7804 6.1432 11.3911ZM13.2612 3.76254C12.0521 5.38574 10.4767 7.20389 8.9247 8.76868C8.73273 8.50694 8.52027 8.26186 8.28923 8.03636C8.07411 7.82097 7.84439 7.62142 7.60292 7.43913C9.3323 5.71055 11.0416 4.11761 12.4266 2.94448C13.8333 1.75294 14.5797 1.26917 14.9573 1.07294C14.631 1.8643 13.7726 3.07591 13.2612 3.76254Z" fill="white"/>
</svg>
