<svg width="17" height="16" viewBox="0 0 17 16" fill="none" xmlns="http://www.w3.org/2000/svg">
<path d="M16.9648 6.04195C16.8805 5.78592 16.6576 5.60045 16.3882 5.56164L11.3787 4.83943L9.13648 0.36077C8.89497 -0.120257 8.09686 -0.120257 7.85534 0.36077L5.61317 4.84009L0.611493 5.56161C0.342117 5.60042 0.118461 5.78661 0.0348556 6.04192C-0.0487498 6.29723 0.0205782 6.57725 0.215646 6.76485L3.83402 10.2511L2.98302 15.1762C2.93657 15.4407 3.04661 15.708 3.26741 15.866C3.39172 15.9549 3.53894 16 3.68683 16C3.80045 16 3.91477 15.9732 4.02122 15.9182L8.49699 13.5942L12.9806 15.9189C13.2214 16.043 13.5137 16.024 13.733 15.8646C13.9531 15.7066 14.0624 15.4393 14.0167 15.1741L13.1592 10.2504L16.784 6.76413C16.9791 6.57725 17.0491 6.29795 16.9648 6.04195ZM11.891 9.49999C11.7231 9.66222 11.6459 9.89567 11.6859 10.1249L12.3619 14.0061L8.82783 12.1731C8.7235 12.1195 8.60988 12.0927 8.49556 12.0927C8.38052 12.0927 8.2662 12.1195 8.1626 12.1738L4.63428 14.0055L5.30521 10.1235C5.34522 9.89571 5.26806 9.66157 5.10015 9.50006L2.24704 6.75151L6.19051 6.18163C6.42273 6.14919 6.62351 6.00462 6.72783 5.79726L8.49556 2.26656L10.2633 5.79657C10.3676 6.00393 10.5684 6.1485 10.8006 6.18167L14.7491 6.75154L11.891 9.49999Z" fill="white"/>
</svg>
